<?xml version="1.0" encoding="utf-8"?>
<!-- Generator: Adobe Illustrator 23.0.3, SVG Export Plug-In . SVG Version: 6.00 Build 0)  -->
<svg version="1.1" id="Layer_1" xmlns="http://www.w3.org/2000/svg" xmlns:xlink="http://www.w3.org/1999/xlink" x="0px" y="0px"
	 viewBox="0 0 394.05 160.85" style="enable-background:new 0 0 394.05 160.85;" xml:space="preserve">
<style type="text/css">
	.st0{fill:#C5C7C9;}
	.st1{fill:url(#SVGID_1_);}
	.st2{fill:#1E87FF;}
	.st3{fill:#231F96;}
</style>
<g>
	<path class="st0" d="M378.21,32.78c0,0-3.2-3.97-7.69-3.97c-4.48,0-29.43-3.03-47.52,10.22c0,0-3.5-0.76-7.02,2.84
		c-3.52,3.6-12.65,11.73-14.08,24.22c-1.43,12.49,20.41,10.6,20.41,10.6s26.51,0.57,41.64-11.54c0.25,0,0.28,1.13,0.28,1.13
		S392.54,49.05,378.21,32.78z M323.57,60.43c-0.73-0.42-1.72-0.77-2.43-1.18c-0.74-0.25-1.44-0.67-2.77-0.14
		c-1.62,0.76-1.79,1.88-2.19,2.76c-0.47,1.38,0.15,2.48,0.49,3.68c-5.17-4.36-3.02-12.38,5.41-19.22c1.84-1.57,3.88-2.91,5.91-4.38
		c0.52-0.53,1.28-1.12,1.08-1.44c-0.23-0.06-0.45-0.13-0.68-0.18c-2.55,0.08-5.67,1.08-8.36,2.33c7.42-4.42,16.61-7.23,24.13-7.12
		c1.2,0.04,2.16,0.15,3.36,0.19c0.97,0.11,1.95,0.22,2.69,0.52c1.25,0.55,2.74,0.79,4.02,1.35c0.26,0.06,0.75,0.06,1.25,0.05
		c1.99-0.28,2.14-1.65,2.31-2.49c0.17-1.08-0.16-2.01-0.96-2.79c4.72,2.66,6.02,7.45,1.84,13.22c-0.95,1.31-2.19,2.56-3.43,3.97
		c-2.04,1.95-4.68,3.63-6.79,5.64c-0.53,0.47-0.27,0.72-0.26,1.04c0.85,0.73,3.31,0.37,5.23-0.33c1.63-0.62,3.52-1.31,5.13-2.08
		C347.47,61.25,331.67,64.49,323.57,60.43z"/>
	<linearGradient id="SVGID_1_" gradientUnits="userSpaceOnUse" x1="291.5951" y1="45.0356" x2="363.6177" y2="45.0356">
		<stop  offset="5.050510e-03" style="stop-color:#B4F759"/>
		<stop  offset="0.0493" style="stop-color:#90ED6F"/>
		<stop  offset="0.1471" style="stop-color:#35D5A5"/>
		<stop  offset="0.202" style="stop-color:#00C7C5"/>
		<stop  offset="0.408" style="stop-color:#2D9BE0"/>
		<stop  offset="0.596" style="stop-color:#5277F7"/>
		<stop  offset="0.6617" style="stop-color:#5B76F7"/>
		<stop  offset="0.7684" style="stop-color:#7374F6"/>
		<stop  offset="0.902" style="stop-color:#9A70F4"/>
		<stop  offset="1" style="stop-color:#BB6DF3"/>
	</linearGradient>
	<path class="st1" d="M350.43,18.87c0,0-5.72-5.23-10.2-5.23c-4.49,0-31.36-3.99-41.06,13.45c0,0-3.99-1-5.22,3.74
		c-1.24,4.74-5.22,15.45,1.24,31.9c6.47,16.44,27.12,13.95,27.12,13.95s26.87,0.75,34.33-15.2c0.25,0,1,1.49,1,1.49
		S375.05,40.3,350.43,18.87z M313.29,55.28c-1-0.56-2.21-1.01-3.17-1.55c-0.9-0.34-1.86-0.88-2.86-0.19c-1.14,1-0.6,2.47-0.44,3.63
		c0.41,1.82,1.71,3.27,2.81,4.84c-7.93-5.74-10.86-16.3-6.75-25.3c0.86-2.07,2.04-3.83,3.14-5.76c0.19-0.7,0.56-1.48,0.17-1.9
		c-0.27-0.08-0.53-0.17-0.8-0.25c-2.49,0.12-4.98,1.43-6.88,3.08c4.62-5.82,12.03-9.52,19.62-9.38c1.22,0.06,2.26,0.2,3.48,0.25
		c1.04,0.15,2.09,0.29,3.02,0.69c1.61,0.73,3.24,1.04,4.88,1.78c0.3,0.08,0.79,0.08,1.28,0.06c1.81-0.38,1.09-2.18,0.74-3.27
		c-0.52-1.42-1.44-2.64-2.73-3.68c6.41,3.5,10.73,9.82,10.21,17.41c-0.12,1.72-0.57,3.37-0.93,5.23c-0.8,2.57-2.37,4.78-3.21,7.44
		c-0.24,0.62,0.18,0.94,0.39,1.36c1.32,0.96,3.55,0.49,5.02-0.43c1.23-0.82,2.69-1.73,3.81-2.75
		C337.7,56.36,323.95,60.62,313.29,55.28z"/>
</g>
<g>
	<path class="st2" d="M210.12,133.89c0.03-0.55,0.07-1.36,0.07-2.07v-9.68h1.44v5.03h0.03c0.51-0.89,1.44-1.47,2.73-1.47
		c1.99,0,3.39,1.66,3.38,4.09c0,2.86-1.8,4.29-3.59,4.29c-1.16,0-2.09-0.45-2.68-1.51h-0.05l-0.07,1.32H210.12z M211.62,130.68
		c0,0.18,0.03,0.36,0.07,0.53c0.28,1.01,1.13,1.7,2.19,1.7c1.52,0,2.43-1.24,2.43-3.08c0-1.61-0.83-2.98-2.38-2.98
		c-0.99,0-1.92,0.68-2.22,1.79c-0.03,0.17-0.08,0.36-0.08,0.6V130.68z"/>
	<path class="st2" d="M220.01,125.88l1.75,4.73c0.18,0.53,0.38,1.16,0.51,1.64h0.03c0.15-0.48,0.31-1.09,0.51-1.67l1.59-4.7h1.54
		l-2.19,5.71c-1.04,2.75-1.75,4.15-2.75,5.01c-0.71,0.63-1.42,0.88-1.79,0.94l-0.36-1.22c0.36-0.12,0.84-0.35,1.28-0.71
		c0.4-0.31,0.89-0.88,1.22-1.62c0.07-0.15,0.12-0.26,0.12-0.35c0-0.08-0.03-0.2-0.1-0.38l-2.96-7.38H220.01z"/>
	<path class="st2" d="M232.4,123.63c0.02,0.5-0.35,0.89-0.93,0.89c-0.51,0-0.88-0.4-0.88-0.89c0-0.51,0.38-0.91,0.91-0.91
		C232.05,122.72,232.4,123.12,232.4,123.63z M230.78,133.89v-8.01h1.46v8.01H230.78z"/>
	<path class="st2" d="M234.65,128.05c0-0.83-0.02-1.51-0.07-2.17h1.29l0.08,1.32h0.03c0.4-0.76,1.32-1.51,2.65-1.51
		c1.11,0,2.83,0.66,2.83,3.41v4.78h-1.46v-4.62c0-1.29-0.48-2.37-1.85-2.37c-0.96,0-1.7,0.68-1.95,1.49
		c-0.07,0.18-0.1,0.43-0.1,0.68v4.82h-1.46V128.05z"/>
	<path class="st2" d="M243.83,128.05c0-0.83-0.02-1.51-0.07-2.17h1.29l0.08,1.32h0.03c0.4-0.76,1.32-1.51,2.65-1.51
		c1.11,0,2.83,0.66,2.83,3.41v4.78h-1.46v-4.62c0-1.29-0.48-2.37-1.85-2.37c-0.96,0-1.7,0.68-1.95,1.49
		c-0.07,0.18-0.1,0.43-0.1,0.68v4.82h-1.46V128.05z"/>
	<path class="st2" d="M260.26,129.82c0,2.96-2.05,4.25-3.99,4.25c-2.17,0-3.84-1.59-3.84-4.12c0-2.68,1.75-4.25,3.97-4.25
		C258.71,125.7,260.26,127.37,260.26,129.82z M253.91,129.9c0,1.75,1.01,3.08,2.43,3.08c1.39,0,2.43-1.31,2.43-3.11
		c0-1.36-0.68-3.08-2.4-3.08C254.65,126.79,253.91,128.38,253.91,129.9z"/>
	<path class="st2" d="M262.54,125.88l1.57,4.5c0.27,0.73,0.48,1.39,0.65,2.05h0.05c0.18-0.66,0.41-1.32,0.68-2.05l1.56-4.5h1.52
		l-3.14,8.01h-1.39l-3.05-8.01H262.54z"/>
	<path class="st2" d="M271.79,130.38l-1.16,3.51h-1.49l3.79-11.16h1.74l3.81,11.16h-1.54l-1.19-3.51H271.79z M275.45,129.26
		l-1.09-3.21c-0.25-0.73-0.41-1.39-0.58-2.04h-0.03c-0.17,0.66-0.35,1.34-0.56,2.02l-1.09,3.23H275.45z"/>
	<path class="st2" d="M285.57,133.59c-0.38,0.2-1.22,0.46-2.3,0.46c-2.42,0-3.99-1.64-3.99-4.09c0-2.47,1.69-4.25,4.3-4.25
		c0.86,0,1.62,0.22,2.02,0.41l-0.33,1.13c-0.35-0.2-0.89-0.38-1.69-0.38c-1.84,0-2.83,1.36-2.83,3.03c0,1.85,1.19,3,2.78,3
		c0.83,0,1.37-0.22,1.79-0.4L285.57,133.59z"/>
	<path class="st2" d="M289.24,123.58v2.3h2.09v1.11h-2.09v4.32c0,0.99,0.28,1.56,1.09,1.56c0.38,0,0.66-0.05,0.84-0.1l0.07,1.09
		c-0.28,0.12-0.73,0.2-1.29,0.2c-0.68,0-1.23-0.22-1.57-0.61c-0.41-0.43-0.56-1.14-0.56-2.09v-4.37h-1.24v-1.11h1.24v-1.92
		L289.24,123.58z"/>
	<path class="st2" d="M294.59,123.63c0.02,0.5-0.35,0.89-0.93,0.89c-0.51,0-0.88-0.4-0.88-0.89c0-0.51,0.38-0.91,0.91-0.91
		C294.24,122.72,294.59,123.12,294.59,123.63z M292.97,133.89v-8.01h1.46v8.01H292.97z"/>
	<path class="st2" d="M304.09,129.82c0,2.96-2.05,4.25-3.99,4.25c-2.17,0-3.84-1.59-3.84-4.12c0-2.68,1.75-4.25,3.97-4.25
		C302.53,125.7,304.09,127.37,304.09,129.82z M297.73,129.9c0,1.75,1.01,3.08,2.43,3.08c1.39,0,2.43-1.31,2.43-3.11
		c0-1.36-0.68-3.08-2.4-3.08C298.48,126.79,297.73,128.38,297.73,129.9z"/>
	<path class="st2" d="M305.92,128.05c0-0.83-0.02-1.51-0.07-2.17h1.29l0.08,1.32h0.03c0.4-0.76,1.32-1.51,2.65-1.51
		c1.11,0,2.83,0.66,2.83,3.41v4.78h-1.46v-4.62c0-1.29-0.48-2.37-1.85-2.37c-0.96,0-1.7,0.68-1.95,1.49
		c-0.07,0.18-0.1,0.43-0.1,0.68v4.82h-1.46V128.05z"/>
</g>
<g>
	<path class="st3" d="M41.11,110.16V76.16h8.99c3.97,0,7.13,1.26,9.49,3.78c2.36,2.52,3.56,5.98,3.61,10.37v5.51
		c0,4.47-1.18,7.97-3.54,10.52c-2.36,2.54-5.61,3.82-9.75,3.82H41.11z M47.97,81.88v22.58h2.05c2.29,0,3.9-0.6,4.83-1.81
		c0.93-1.21,1.42-3.29,1.47-6.25V90.5c0-3.18-0.44-5.39-1.33-6.64c-0.89-1.25-2.4-1.91-4.53-1.97H47.97z"/>
	<path class="st3" d="M85.05,103.2h-9.36l-1.82,6.96h-7.26l10.62-33.99h6.28l10.69,33.99h-7.33L85.05,103.2z M77.18,97.48h6.35
		l-3.17-12.12L77.18,97.48z"/>
	<path class="st3" d="M116.81,98.32c0,3.97-0.68,7.01-2.04,9.13c-1.36,2.12-3.39,3.18-6.08,3.18c-2.05,0-3.7-0.83-4.95-2.5v11.74
		h-6.61V84.89h6.12l0.23,2.31c1.26-1.85,2.98-2.78,5.16-2.78c2.69,0,4.72,0.98,6.08,2.94c1.36,1.96,2.06,4.97,2.09,9.01V98.32z
		 M110.23,96.66c0-2.44-0.27-4.17-0.81-5.18s-1.44-1.52-2.72-1.52c-1.35,0-2.34,0.57-2.96,1.7v11.84c0.59,1.09,1.59,1.63,3.01,1.63
		c1.31,0,2.21-0.55,2.72-1.66c0.51-1.1,0.76-2.82,0.76-5.16V96.66z"/>
	<path class="st3" d="M141.68,98.32c0,3.97-0.68,7.01-2.04,9.13c-1.36,2.12-3.39,3.18-6.08,3.18c-2.05,0-3.7-0.83-4.95-2.5v11.74
		H122V84.89h6.12l0.23,2.31c1.26-1.85,2.98-2.78,5.16-2.78c2.69,0,4.72,0.98,6.08,2.94c1.36,1.96,2.06,4.97,2.09,9.01V98.32z
		 M135.1,96.66c0-2.44-0.27-4.17-0.81-5.18s-1.44-1.52-2.72-1.52c-1.35,0-2.34,0.57-2.96,1.7v11.84c0.59,1.09,1.59,1.63,3.01,1.63
		c1.31,0,2.21-0.55,2.72-1.66c0.51-1.1,0.76-2.82,0.76-5.16V96.66z"/>
	<path class="st3" d="M158.05,103.38c0-0.56-0.27-1.08-0.81-1.55c-0.54-0.47-1.73-1.12-3.58-1.93c-2.72-1.1-4.6-2.25-5.62-3.43
		c-1.02-1.18-1.53-2.65-1.53-4.41c0-2.21,0.8-4.04,2.39-5.48c1.59-1.44,3.71-2.16,6.34-2.16c2.77,0,4.99,0.72,6.65,2.15
		c1.67,1.43,2.5,3.35,2.5,5.77h-6.61c0-2.05-0.86-3.08-2.57-3.08c-0.7,0-1.28,0.22-1.73,0.65c-0.45,0.44-0.68,1.04-0.68,1.82
		c0,0.56,0.25,1.05,0.75,1.48c0.5,0.43,1.67,1.04,3.53,1.83c2.69,1,4.6,2.1,5.71,3.33c1.11,1.22,1.67,2.81,1.67,4.75
		c0,2.26-0.85,4.07-2.54,5.44c-1.7,1.37-3.92,2.05-6.68,2.05c-1.85,0-3.49-0.36-4.9-1.09c-1.42-0.72-2.53-1.73-3.33-3.02
		s-1.2-2.69-1.2-4.18h6.28c0.03,1.15,0.3,2.02,0.81,2.59c0.51,0.58,1.33,0.86,2.49,0.86C157.16,105.79,158.05,104.99,158.05,103.38z
		"/>
	<path class="st3" d="M186.8,95.14h-11.49v15.01h-4.27V76.16h17.7v3.67h-13.42v11.65h11.49V95.14z"/>
	<path class="st3" d="M206.84,110.16c-0.25-0.54-0.43-1.46-0.54-2.75c-1.46,2.15-3.33,3.22-5.6,3.22c-2.29,0-4.07-0.64-5.36-1.93
		c-1.28-1.28-1.93-3.09-1.93-5.43c0-2.57,0.87-4.61,2.61-6.12c1.74-1.51,4.13-2.28,7.17-2.31h3.04v-2.68c0-1.51-0.33-2.58-1-3.22
		s-1.69-0.96-3.06-0.96c-1.25,0-2.26,0.37-3.04,1.11s-1.17,1.68-1.17,2.81h-4.13c0-1.29,0.38-2.53,1.14-3.7s1.79-2.1,3.08-2.77
		c1.29-0.67,2.73-1,4.32-1c2.58,0,4.55,0.64,5.9,1.93s2.04,3.16,2.07,5.62v12.75c0.02,1.95,0.28,3.63,0.79,5.07v0.37H206.84z
		 M201.32,106.86c1.01,0,1.98-0.28,2.9-0.84c0.92-0.56,1.59-1.26,2.01-2.1V97.9h-2.33c-1.96,0.03-3.51,0.47-4.65,1.32
		c-1.14,0.85-1.71,2.04-1.71,3.56c0,1.43,0.29,2.47,0.86,3.12C198.98,106.54,199.96,106.86,201.32,106.86z"/>
	<path class="st3" d="M226.71,107.1c1.37,0,2.47-0.42,3.29-1.27c0.83-0.85,1.28-2.06,1.35-3.63h3.9c-0.09,2.43-0.95,4.44-2.58,6.04
		c-1.63,1.6-3.62,2.39-5.97,2.39c-3.13,0-5.51-0.98-7.16-2.95c-1.64-1.97-2.46-4.9-2.46-8.79V96.1c0-3.81,0.82-6.71,2.45-8.7
		c1.63-1.98,4.02-2.98,7.14-2.98c2.58,0,4.63,0.82,6.15,2.45s2.32,3.87,2.42,6.7h-3.9c-0.09-1.87-0.54-3.27-1.34-4.2
		c-0.8-0.93-1.91-1.4-3.33-1.4c-1.84,0-3.2,0.6-4.08,1.81c-0.89,1.21-1.35,3.19-1.38,5.94v3.22c0,2.97,0.44,5.07,1.32,6.3
		C223.42,106.48,224.81,107.1,226.71,107.1z"/>
	<path class="st3" d="M246.63,78.78v6.12h3.81v3.34h-3.81v15.69c0,1,0.16,1.75,0.49,2.27c0.33,0.51,0.89,0.77,1.68,0.77
		c0.54,0,1.1-0.09,1.66-0.28l-0.05,3.48c-0.93,0.31-1.89,0.46-2.87,0.46c-1.63,0-2.88-0.58-3.74-1.75
		c-0.86-1.17-1.28-2.82-1.28-4.95V88.23h-3.85v-3.34h3.85v-6.12H246.63z"/>
	<path class="st3" d="M255.2,96.36c0-3.67,0.89-6.58,2.67-8.72s4.14-3.21,7.06-3.21c2.93,0,5.28,1.04,7.06,3.13s2.7,4.93,2.74,8.52
		v2.66c0,3.66-0.89,6.55-2.66,8.69c-1.77,2.13-4.14,3.2-7.1,3.2c-2.93,0-5.27-1.03-7.04-3.1c-1.77-2.07-2.68-4.87-2.74-8.41V96.36z
		 M259.34,98.74c0,2.6,0.51,4.64,1.53,6.13s2.39,2.23,4.12,2.23c3.64,0,5.52-2.63,5.63-7.89v-2.85c0-2.58-0.51-4.63-1.54-6.13
		s-2.41-2.25-4.13-2.25c-1.7,0-3.05,0.75-4.07,2.25s-1.53,3.54-1.53,6.11V98.74z"/>
	<path class="st3" d="M291.7,88.77c-0.58-0.11-1.2-0.16-1.87-0.16c-2.12,0-3.6,1.16-4.44,3.48v18.07h-4.13V84.89h4.02l0.07,2.57
		c1.1-2.02,2.67-3.04,4.69-3.04c0.65,0,1.2,0.11,1.63,0.33L291.7,88.77z"/>
	<path class="st3" d="M304.34,103.29l4.6-18.4h4.39l-8.26,28.83c-0.62,2.16-1.5,3.81-2.64,4.94c-1.14,1.13-2.43,1.69-3.88,1.69
		c-0.56,0-1.28-0.13-2.15-0.37v-3.5l0.91,0.09c1.2,0,2.14-0.28,2.81-0.85c0.68-0.57,1.23-1.55,1.65-2.95l0.82-2.82l-7.42-25.05h4.51
		L304.34,103.29z"/>
</g>
</svg>
